<?xml version="1.0" encoding="UTF-8" standalone="no"?>
<svg xmlns:rdf="http://www.w3.org/1999/02/22-rdf-syntax-ns#" xmlns="http://www.w3.org/2000/svg" height="480" width="580" version="1.0" y="0" x="0" xmlns:cc="http://creativecommons.org/ns#" xmlns:xlink="http://www.w3.org/1999/xlink" xmlns:dc="http://purl.org/dc/elements/1.1/">
<style>
 .arrow{fill-rule:nonzero;fill:#000000;}
 .blue{stroke-linejoin:miter;stroke:#4040ff;stroke-linecap:butt;stroke-width:2.505;fill:none;}
 .txt{font-size:25px;font-family:Bitstream Vera Sans;fill:#000000;}
 .black{stroke-linejoin:miter;stroke:#000000;stroke-linecap:butt;stroke-width:1.8;}
 .dashed{stroke-dasharray:8, 8;stroke-width:1.8;}
</style>
 <metadata>
  <rdf:RDF>
   <cc:Work rdf:about="">
    <dc:format>image/svg+xml</dc:format>
    <dc:type rdf:resource="http://purl.org/dc/dcmitype/StillImage"/>
    <dc:title/>
   </cc:Work>
  </rdf:RDF>
 </metadata>
 <path class="black dashed" d="m 279,177 -228,0"/>
 <path class="black dashed" d="m 279,177 0,285.3"/>
 <path class="black" d="M 279,175 474.8,362.1"/>
 <path class="black" d="M 51,113 279,175"/>
 <path class="black" d="M 51,113 279,236.7"/>
 <path class="black" d="m 279,405.4 27.3,54.2"/>
 <path class="black" style="stroke-width:1.3;" d="M 51,50.8  51,462.7"/>
 <path class="black" style="stroke-width:1.3;" d="M 528.3,363.9 51,363.2"/>
 <path class="blue" d="M 110,167.2 C 192,416.6 452,82.2 452,82.2"/>
 <path class="blue" d="M 110,253.2 C 192,502.6 452,168.2 452,168.2"/>
 <path class="blue" d="M 110,333.2 C 192,582.6 452,248.2 452,248.2"/>
 <path class="arrow" d="m 51,45.1 6.9,17.2 c 0,0 -5.9,-8.4 -13.2,0 l 6.2,-17.2 z"/>
 <path class="arrow" d="m 539.4,363.1 -17.2,6.9 c 0,0 8.4,-5.9 0,-13.2 l 17.2,6.2 z"/>
 <text class="txt" y="166" x="467">MC2</text>
 <text class="txt" y="186" x="26">P</text>
 <text class="txt" y="245" x="467">MC3</text>
 <text class="txt" y="342" x="483">AR</text>
 <text class="txt" y="35" x="19">Price</text>
 <text class="txt" y="353" x="288">Q</text>
 <text class="txt" y="387" x="469">Quantity</text>
 <text class="txt" y="451" x="321">MR</text>
 <text class="txt" y="81" x="467">MC1</text>
</svg>
